<?xml version="1.0" encoding="utf-8"?>
<!-- Generator: Adobe Illustrator 24.1.0, SVG Export Plug-In . SVG Version: 6.00 Build 0)  -->
<svg version="1.1" id="Layer_1" xmlns="http://www.w3.org/2000/svg" xmlns:xlink="http://www.w3.org/1999/xlink" x="0px" y="0px"
	 viewBox="0 0 576 576" style="enable-background:new 0 0 576 576;" xml:space="preserve">
<style type="text/css">
	.st0{fill:#303030;}
	.st1{fill:#FFFFFF;}
	.st2{fill:#D6D6D6;}
</style>
<rect class="st0" width="576" height="576"/>
<g>
	<g>
		<path class="st1" d="M270.26,333.63h5.44c0.68,0,1.31,0.08,1.89,0.24c0.58,0.16,1.08,0.4,1.5,0.72c0.42,0.32,0.75,0.72,1,1.22
			c0.24,0.49,0.36,1.07,0.36,1.74c0,0.9-0.25,1.63-0.75,2.2s-1.15,0.98-1.95,1.25v0.04c0.47,0.03,0.91,0.15,1.33,0.37
			c0.41,0.21,0.77,0.49,1.07,0.84c0.3,0.35,0.54,0.75,0.72,1.21c0.18,0.46,0.27,0.95,0.27,1.48c0,0.71-0.14,1.33-0.43,1.87
			c-0.29,0.54-0.68,0.99-1.18,1.36c-0.5,0.37-1.08,0.65-1.75,0.84c-0.66,0.19-1.38,0.29-2.15,0.29h-5.37V333.63z M272.38,340.13h2.9
			c0.4,0,0.77-0.04,1.13-0.12c0.35-0.08,0.66-0.22,0.93-0.41c0.27-0.19,0.48-0.43,0.63-0.73c0.16-0.3,0.23-0.66,0.23-1.08
			c0-0.62-0.2-1.16-0.6-1.61c-0.4-0.46-1.03-0.69-1.88-0.69h-3.34V340.13z M272.38,347.43h3.12c0.32,0,0.68-0.03,1.07-0.1
			c0.39-0.07,0.76-0.2,1.09-0.4s0.63-0.47,0.86-0.81c0.23-0.34,0.35-0.79,0.35-1.35c0-0.93-0.3-1.63-0.91-2.09
			c-0.6-0.47-1.42-0.7-2.46-0.7h-3.14V347.43z"/>
		<path class="st1" d="M292.98,349.29h-1.99v-1.61h-0.04c-0.25,0.56-0.69,1.01-1.31,1.36s-1.33,0.52-2.15,0.52
			c-0.52,0-1-0.08-1.46-0.23c-0.46-0.16-0.86-0.39-1.21-0.72c-0.35-0.32-0.62-0.74-0.83-1.25c-0.21-0.51-0.31-1.11-0.31-1.8v-6.75
			h1.99V345c0,0.49,0.07,0.9,0.2,1.25c0.13,0.35,0.31,0.63,0.53,0.84c0.22,0.21,0.48,0.37,0.76,0.46c0.29,0.1,0.59,0.14,0.9,0.14
			c0.41,0,0.8-0.07,1.15-0.2c0.35-0.13,0.66-0.34,0.93-0.63c0.27-0.29,0.47-0.65,0.62-1.09c0.15-0.44,0.22-0.97,0.22-1.57v-5.4h1.99
			V349.29z"/>
		<path class="st1" d="M295.67,335.04c0-0.4,0.14-0.74,0.43-1.03c0.29-0.29,0.63-0.43,1.03-0.43c0.4,0,0.74,0.14,1.03,0.43
			c0.29,0.29,0.43,0.63,0.43,1.03c0,0.4-0.14,0.74-0.43,1.03c-0.29,0.29-0.63,0.43-1.03,0.43c-0.4,0-0.74-0.14-1.03-0.43
			C295.82,335.79,295.67,335.44,295.67,335.04z M296.14,338.81h1.99v10.48h-1.99V338.81z"/>
		<path class="st1" d="M301.45,332.57h1.99v16.72h-1.99V332.57z"/>
		<path class="st1" d="M317.11,349.29h-1.99v-1.5h-0.04c-0.38,0.56-0.91,1-1.58,1.3c-0.67,0.31-1.36,0.47-2.07,0.47
			c-0.81,0-1.55-0.14-2.2-0.42c-0.66-0.28-1.22-0.67-1.68-1.17c-0.47-0.5-0.82-1.08-1.07-1.75c-0.25-0.66-0.38-1.39-0.38-2.17
			c0-0.78,0.12-1.51,0.38-2.18s0.61-1.25,1.07-1.75c0.46-0.49,1.02-0.88,1.68-1.16c0.66-0.28,1.39-0.42,2.2-0.42
			c0.75,0,1.46,0.16,2.12,0.47c0.66,0.32,1.17,0.75,1.53,1.29h0.04v-7.74h1.99V349.29z M311.67,347.7c0.53,0,1.01-0.09,1.44-0.28
			c0.43-0.18,0.79-0.43,1.08-0.75c0.3-0.32,0.52-0.7,0.69-1.15c0.16-0.45,0.24-0.94,0.24-1.47s-0.08-1.02-0.24-1.47
			c-0.16-0.45-0.39-0.83-0.69-1.15c-0.29-0.32-0.66-0.57-1.08-0.75c-0.43-0.18-0.91-0.28-1.44-0.28c-0.53,0-1.01,0.09-1.44,0.28
			c-0.43,0.18-0.79,0.43-1.08,0.75c-0.3,0.32-0.52,0.7-0.69,1.15c-0.16,0.45-0.24,0.94-0.24,1.47s0.08,1.02,0.24,1.47
			c0.16,0.45,0.39,0.83,0.69,1.15c0.29,0.32,0.66,0.57,1.08,0.75C310.66,347.6,311.13,347.7,311.67,347.7z"/>
		<path class="st1" d="M319.8,335.04c0-0.4,0.14-0.74,0.43-1.03c0.29-0.29,0.63-0.43,1.03-0.43c0.4,0,0.74,0.14,1.03,0.43
			c0.29,0.29,0.43,0.63,0.43,1.03c0,0.4-0.14,0.74-0.43,1.03c-0.29,0.29-0.63,0.43-1.03,0.43c-0.4,0-0.74-0.14-1.03-0.43
			C319.95,335.79,319.8,335.44,319.8,335.04z M320.27,338.81h1.99v10.48h-1.99V338.81z"/>
		<path class="st1" d="M325.42,338.81h1.99v1.61h0.04c0.25-0.56,0.69-1.01,1.3-1.36c0.62-0.35,1.33-0.52,2.15-0.52
			c0.5,0,0.98,0.08,1.45,0.23c0.46,0.16,0.87,0.39,1.22,0.72c0.35,0.32,0.62,0.74,0.83,1.25c0.21,0.51,0.31,1.11,0.31,1.8v6.75
			h-1.99v-6.19c0-0.49-0.07-0.9-0.2-1.25c-0.13-0.35-0.31-0.63-0.53-0.84c-0.22-0.21-0.47-0.37-0.76-0.47
			c-0.29-0.1-0.59-0.14-0.9-0.14c-0.41,0-0.8,0.07-1.15,0.2c-0.35,0.13-0.66,0.34-0.93,0.63c-0.27,0.29-0.47,0.65-0.62,1.09
			c-0.15,0.44-0.22,0.97-0.22,1.57v5.4h-1.99V338.81z"/>
		<path class="st1" d="M348.23,349.2c0,0.8-0.14,1.52-0.41,2.18c-0.27,0.66-0.66,1.22-1.16,1.7c-0.5,0.48-1.11,0.85-1.81,1.12
			c-0.71,0.27-1.49,0.4-2.34,0.4c-1,0-1.92-0.14-2.75-0.42c-0.83-0.28-1.63-0.77-2.38-1.46l1.35-1.68c0.52,0.56,1.08,0.98,1.68,1.27
			c0.6,0.29,1.29,0.43,2.06,0.43c0.74,0,1.35-0.11,1.83-0.32c0.49-0.21,0.87-0.49,1.16-0.83c0.29-0.34,0.49-0.73,0.61-1.16
			c0.12-0.43,0.18-0.87,0.18-1.32v-1.55h-0.07c-0.38,0.63-0.9,1.1-1.56,1.41c-0.66,0.3-1.35,0.45-2.07,0.45
			c-0.77,0-1.48-0.14-2.13-0.41c-0.66-0.27-1.22-0.65-1.69-1.13c-0.47-0.48-0.84-1.05-1.11-1.7c-0.27-0.66-0.4-1.37-0.4-2.13
			s0.12-1.49,0.38-2.16c0.25-0.67,0.61-1.26,1.07-1.76c0.46-0.5,1.02-0.89,1.68-1.17c0.66-0.28,1.39-0.42,2.2-0.42
			c0.71,0,1.4,0.16,2.07,0.46c0.67,0.31,1.2,0.74,1.58,1.31h0.04v-1.5h1.99V349.2z M342.79,340.4c-0.53,0-1.01,0.09-1.44,0.28
			c-0.43,0.18-0.79,0.43-1.08,0.75c-0.3,0.32-0.52,0.7-0.69,1.15c-0.16,0.45-0.24,0.94-0.24,1.47c0,1.06,0.31,1.91,0.93,2.55
			c0.62,0.64,1.46,0.96,2.52,0.96c1.06,0,1.9-0.32,2.52-0.96c0.62-0.64,0.93-1.49,0.93-2.55c0-0.53-0.08-1.02-0.24-1.47
			c-0.16-0.45-0.39-0.83-0.69-1.15c-0.29-0.32-0.66-0.57-1.08-0.75C343.8,340.49,343.32,340.4,342.79,340.4z"/>
		<path class="st1" d="M355.75,333.63h2.46l4.6,12.74h0.04l4.78-12.74h2.32l-6.17,15.66h-1.99L355.75,333.63z"/>
		<path class="st1" d="M370.61,335.04c0-0.4,0.14-0.74,0.43-1.03c0.29-0.29,0.63-0.43,1.03-0.43c0.4,0,0.74,0.14,1.03,0.43
			c0.29,0.29,0.43,0.63,0.43,1.03c0,0.4-0.14,0.74-0.43,1.03c-0.29,0.29-0.63,0.43-1.03,0.43c-0.4,0-0.74-0.14-1.03-0.43
			C370.76,335.79,370.61,335.44,370.61,335.04z M371.08,338.81h1.99v10.48h-1.99V338.81z"/>
		<path class="st1" d="M381.8,341.44c-0.24-0.29-0.53-0.54-0.87-0.74c-0.35-0.2-0.77-0.3-1.27-0.3c-0.47,0-0.88,0.1-1.23,0.3
			c-0.35,0.2-0.52,0.49-0.52,0.87c0,0.31,0.1,0.56,0.3,0.75c0.2,0.19,0.43,0.35,0.71,0.47c0.27,0.12,0.56,0.21,0.87,0.27
			c0.31,0.06,0.58,0.11,0.8,0.16c0.43,0.1,0.83,0.23,1.21,0.38c0.38,0.15,0.7,0.34,0.97,0.58c0.27,0.24,0.49,0.52,0.64,0.86
			c0.15,0.34,0.23,0.75,0.23,1.24c0,0.59-0.12,1.09-0.38,1.52s-0.58,0.76-0.97,1.03c-0.4,0.27-0.85,0.46-1.36,0.58
			c-0.51,0.12-1.02,0.18-1.54,0.18c-0.87,0-1.63-0.13-2.29-0.4c-0.66-0.27-1.24-0.75-1.76-1.46l1.5-1.24
			c0.32,0.32,0.69,0.61,1.08,0.86c0.4,0.25,0.88,0.38,1.46,0.38c0.25,0,0.51-0.03,0.76-0.08c0.26-0.05,0.49-0.13,0.69-0.24
			c0.2-0.11,0.36-0.25,0.49-0.42c0.12-0.17,0.19-0.36,0.19-0.59c0-0.29-0.09-0.54-0.28-0.73c-0.18-0.19-0.41-0.34-0.66-0.45
			c-0.26-0.11-0.53-0.2-0.82-0.27c-0.29-0.07-0.54-0.12-0.76-0.17c-0.43-0.1-0.83-0.22-1.22-0.35c-0.38-0.13-0.72-0.31-1.02-0.53
			c-0.3-0.22-0.53-0.5-0.71-0.84c-0.18-0.34-0.27-0.76-0.27-1.26c0-0.55,0.11-1.02,0.34-1.43c0.23-0.41,0.53-0.74,0.91-1.01
			c0.38-0.27,0.8-0.46,1.28-0.6c0.48-0.13,0.96-0.2,1.45-0.2c0.71,0,1.39,0.13,2.03,0.4c0.65,0.27,1.16,0.71,1.55,1.33L381.8,341.44
			z"/>
		<path class="st1" d="M395.34,349.29h-1.99v-1.61h-0.04c-0.25,0.56-0.69,1.01-1.31,1.36c-0.62,0.35-1.33,0.52-2.15,0.52
			c-0.52,0-1-0.08-1.46-0.23c-0.46-0.16-0.86-0.39-1.21-0.72c-0.35-0.32-0.62-0.74-0.83-1.25c-0.21-0.51-0.31-1.11-0.31-1.8v-6.75
			h1.99V345c0,0.49,0.07,0.9,0.2,1.25c0.13,0.35,0.31,0.63,0.53,0.84c0.22,0.21,0.48,0.37,0.76,0.46c0.29,0.1,0.59,0.14,0.9,0.14
			c0.41,0,0.8-0.07,1.15-0.2c0.35-0.13,0.66-0.34,0.93-0.63c0.27-0.29,0.47-0.65,0.62-1.09c0.15-0.44,0.22-0.97,0.22-1.57v-5.4h1.99
			V349.29z"/>
		<path class="st1" d="M398.39,340.09c0.56-0.52,1.21-0.9,1.95-1.16c0.74-0.26,1.48-0.39,2.21-0.39c0.77,0,1.43,0.1,1.98,0.29
			c0.55,0.19,1.01,0.45,1.36,0.77c0.35,0.32,0.62,0.7,0.78,1.12c0.17,0.42,0.25,0.86,0.25,1.32v5.35c0,0.37,0.01,0.71,0.02,1.02
			c0.01,0.31,0.04,0.61,0.07,0.89h-1.77c-0.04-0.53-0.07-1.06-0.07-1.59h-0.04c-0.44,0.68-0.97,1.16-1.57,1.44
			c-0.6,0.28-1.3,0.42-2.1,0.42c-0.49,0-0.95-0.07-1.39-0.2c-0.44-0.13-0.83-0.33-1.16-0.6c-0.33-0.27-0.59-0.59-0.78-0.98
			c-0.19-0.39-0.29-0.84-0.29-1.36c0-0.68,0.15-1.25,0.45-1.7c0.3-0.46,0.71-0.83,1.24-1.12c0.52-0.29,1.13-0.49,1.83-0.62
			c0.7-0.12,1.45-0.19,2.25-0.19h1.46v-0.44c0-0.27-0.05-0.53-0.16-0.8c-0.1-0.27-0.26-0.51-0.46-0.72
			c-0.21-0.21-0.47-0.38-0.77-0.51c-0.31-0.13-0.68-0.19-1.11-0.19c-0.38,0-0.72,0.04-1.01,0.11c-0.29,0.07-0.55,0.17-0.78,0.28
			c-0.24,0.11-0.45,0.24-0.64,0.39c-0.19,0.15-0.38,0.29-0.55,0.42L398.39,340.09z M404.01,344.25c-0.47,0-0.96,0.03-1.45,0.08
			c-0.49,0.05-0.94,0.15-1.35,0.3c-0.41,0.15-0.74,0.35-1,0.62c-0.26,0.27-0.39,0.6-0.39,1.02c0,0.6,0.2,1.04,0.61,1.3
			c0.41,0.27,0.96,0.4,1.65,0.4c0.55,0,1.01-0.09,1.39-0.28c0.38-0.18,0.69-0.42,0.93-0.72c0.24-0.29,0.41-0.62,0.51-0.98
			c0.1-0.36,0.16-0.72,0.16-1.07v-0.66H404.01z"/>
		<path class="st1" d="M409.98,332.57h1.99v16.72h-1.99V332.57z"/>
		<path class="st1" d="M423.52,333.63h3.45l-2.19,15.66h-3.45L423.52,333.63z"/>
		<path class="st1" d="M429,338.54h3.18l-0.2,1.46h0.04c0.13-0.21,0.31-0.41,0.53-0.62c0.22-0.21,0.47-0.39,0.75-0.55
			c0.28-0.16,0.6-0.29,0.95-0.4c0.35-0.1,0.73-0.15,1.13-0.15c0.84,0,1.5,0.13,1.99,0.39c0.49,0.26,0.84,0.62,1.06,1.07
			c0.22,0.46,0.34,1,0.35,1.61c0.01,0.62-0.03,1.29-0.13,2.01l-0.82,5.93h-3.32l0.73-5.26c0.04-0.31,0.08-0.63,0.11-0.96
			c0.03-0.33,0.01-0.64-0.07-0.92c-0.07-0.28-0.21-0.51-0.42-0.69c-0.21-0.18-0.52-0.27-0.95-0.27c-0.43,0-0.78,0.08-1.07,0.23
			c-0.29,0.16-0.52,0.36-0.7,0.62c-0.18,0.26-0.31,0.55-0.4,0.87c-0.09,0.32-0.16,0.66-0.2,1.02l-0.75,5.35h-3.32L429,338.54z"/>
		<path class="st1" d="M448.64,341.19h-2.92l-0.51,3.58c-0.04,0.3-0.07,0.56-0.07,0.81c0,0.24,0.04,0.45,0.12,0.63
			c0.08,0.18,0.22,0.31,0.42,0.41c0.2,0.1,0.47,0.14,0.83,0.14c0.18,0,0.41-0.02,0.7-0.06c0.29-0.04,0.51-0.12,0.67-0.25l-0.38,2.77
			c-0.38,0.13-0.78,0.22-1.18,0.27c-0.41,0.04-0.8,0.07-1.18,0.07c-0.56,0-1.07-0.06-1.53-0.18c-0.46-0.12-0.84-0.31-1.16-0.56
			c-0.32-0.26-0.55-0.59-0.69-1.01c-0.14-0.41-0.17-0.91-0.1-1.5l0.73-5.11h-2.12l0.38-2.65h2.12l0.44-3.19h3.32l-0.44,3.19h2.92
			L448.64,341.19z"/>
		<path class="st1" d="M459.61,347.43c-0.62,0.68-1.36,1.2-2.22,1.57c-0.86,0.37-1.73,0.55-2.6,0.55c-0.83,0-1.59-0.13-2.28-0.4
			s-1.27-0.64-1.74-1.14c-0.47-0.49-0.8-1.09-1.02-1.78c-0.21-0.69-0.26-1.47-0.14-2.32c0.12-0.86,0.38-1.63,0.78-2.32
			s0.91-1.29,1.52-1.78s1.29-0.87,2.06-1.14c0.77-0.27,1.56-0.4,2.39-0.4c0.77,0,1.44,0.13,2.03,0.4c0.59,0.27,1.07,0.65,1.44,1.14
			c0.37,0.49,0.62,1.09,0.76,1.78c0.14,0.69,0.15,1.47,0.03,2.32l-0.16,1.04h-7.7c0.04,0.63,0.26,1.14,0.65,1.51
			c0.39,0.38,0.91,0.56,1.56,0.56c0.55,0,1.02-0.12,1.43-0.36c0.41-0.24,0.78-0.56,1.12-0.94L459.61,347.43z M457.47,342.7
			c0.09-0.56-0.03-1.04-0.35-1.44c-0.32-0.4-0.79-0.6-1.39-0.6c-0.37,0-0.7,0.06-1,0.18c-0.29,0.12-0.55,0.27-0.77,0.45
			c-0.22,0.19-0.41,0.4-0.55,0.64c-0.15,0.24-0.25,0.5-0.31,0.76H457.47z"/>
		<path class="st1" d="M464.28,332.57h3.32l-2.34,16.72h-3.32L464.28,332.57z"/>
		<path class="st1" d="M470.03,332.57h3.32l-2.34,16.72h-3.32L470.03,332.57z"/>
		<path class="st1" d="M474.94,338.54h3.32l-1.5,10.75h-3.32L474.94,338.54z M475.14,335.16c0.04-0.27,0.13-0.52,0.27-0.75
			c0.13-0.24,0.3-0.44,0.5-0.61c0.2-0.17,0.42-0.31,0.67-0.41c0.25-0.1,0.51-0.16,0.78-0.16c0.53,0,0.95,0.19,1.27,0.56
			c0.32,0.38,0.44,0.83,0.36,1.36c-0.03,0.27-0.11,0.52-0.24,0.75c-0.13,0.23-0.3,0.44-0.5,0.61c-0.2,0.17-0.42,0.31-0.67,0.41
			c-0.25,0.1-0.51,0.15-0.77,0.15s-0.51-0.05-0.73-0.15c-0.22-0.1-0.41-0.24-0.55-0.41c-0.15-0.17-0.25-0.37-0.32-0.61
			C475.13,335.67,475.11,335.42,475.14,335.16z"/>
		<path class="st1" d="M490.54,348.38c-0.28,2.03-1.01,3.58-2.18,4.63c-1.17,1.05-2.81,1.58-4.9,1.58c-0.96,0-1.89-0.11-2.79-0.32
			c-0.9-0.21-1.7-0.63-2.39-1.25l2.21-2.74c0.46,0.43,0.95,0.77,1.48,1.02c0.53,0.25,1.14,0.38,1.81,0.38c1.02,0,1.8-0.25,2.34-0.74
			c0.55-0.49,0.88-1.12,1-1.89l0.16-1.04h-0.04c-0.46,0.52-0.98,0.88-1.58,1.09c-0.6,0.21-1.15,0.32-1.65,0.32
			c-0.8,0-1.5-0.14-2.11-0.41c-0.61-0.27-1.12-0.66-1.52-1.15c-0.4-0.49-0.67-1.08-0.83-1.76c-0.16-0.68-0.17-1.42-0.06-2.23
			c0.1-0.71,0.31-1.4,0.63-2.08c0.32-0.68,0.72-1.28,1.22-1.79c0.49-0.52,1.06-0.93,1.71-1.25c0.65-0.32,1.36-0.47,2.12-0.47
			c0.47,0,0.9,0.05,1.28,0.15c0.38,0.1,0.72,0.24,1.01,0.4c0.29,0.16,0.53,0.34,0.72,0.54c0.19,0.2,0.34,0.39,0.44,0.58h0.04
			l0.2-1.41h3.05L490.54,348.38z M482.82,343.85c-0.04,0.35-0.02,0.69,0.07,1.01c0.09,0.32,0.23,0.6,0.43,0.84
			c0.2,0.24,0.45,0.44,0.75,0.59c0.3,0.15,0.64,0.22,1.03,0.22c0.37,0,0.73-0.07,1.07-0.22c0.35-0.15,0.66-0.34,0.93-0.59
			c0.27-0.24,0.5-0.52,0.69-0.84c0.18-0.32,0.3-0.65,0.34-1.01c0.04-0.35,0.02-0.69-0.07-1.01c-0.09-0.32-0.23-0.6-0.43-0.84
			c-0.2-0.24-0.45-0.44-0.76-0.59c-0.31-0.15-0.65-0.22-1.02-0.22c-0.38,0-0.74,0.07-1.08,0.22c-0.34,0.15-0.64,0.34-0.92,0.59
			c-0.27,0.24-0.5,0.52-0.69,0.84C482.98,343.16,482.86,343.49,482.82,343.85z"/>
		<path class="st1" d="M503.5,347.43c-0.62,0.68-1.36,1.2-2.22,1.57c-0.86,0.37-1.73,0.55-2.6,0.55c-0.83,0-1.59-0.13-2.28-0.4
			s-1.27-0.64-1.74-1.14c-0.47-0.49-0.8-1.09-1.02-1.78c-0.21-0.69-0.26-1.47-0.14-2.32c0.12-0.86,0.38-1.63,0.78-2.32
			s0.91-1.29,1.52-1.78s1.29-0.87,2.06-1.14c0.77-0.27,1.56-0.4,2.39-0.4c0.77,0,1.44,0.13,2.03,0.4c0.59,0.27,1.07,0.65,1.44,1.14
			c0.37,0.49,0.62,1.09,0.76,1.78c0.14,0.69,0.15,1.47,0.03,2.32l-0.16,1.04h-7.7c0.04,0.63,0.26,1.14,0.65,1.51
			c0.39,0.38,0.91,0.56,1.56,0.56c0.55,0,1.02-0.12,1.43-0.36c0.41-0.24,0.78-0.56,1.12-0.94L503.5,347.43z M501.35,342.7
			c0.09-0.56-0.03-1.04-0.35-1.44c-0.32-0.4-0.79-0.6-1.39-0.6c-0.37,0-0.7,0.06-1,0.18c-0.29,0.12-0.55,0.27-0.77,0.45
			c-0.22,0.19-0.41,0.4-0.55,0.64c-0.15,0.24-0.25,0.5-0.31,0.76H501.35z"/>
		<path class="st1" d="M507.28,338.54h3.18l-0.2,1.46h0.04c0.13-0.21,0.31-0.41,0.53-0.62c0.22-0.21,0.47-0.39,0.75-0.55
			c0.28-0.16,0.6-0.29,0.95-0.4c0.35-0.1,0.73-0.15,1.13-0.15c0.84,0,1.5,0.13,1.99,0.39c0.49,0.26,0.84,0.62,1.06,1.07
			c0.22,0.46,0.34,1,0.35,1.61c0.01,0.62-0.03,1.29-0.13,2.01l-0.82,5.93h-3.32l0.73-5.26c0.04-0.31,0.08-0.63,0.11-0.96
			c0.03-0.33,0.01-0.64-0.07-0.92c-0.07-0.28-0.21-0.51-0.42-0.69c-0.21-0.18-0.52-0.27-0.95-0.27s-0.78,0.08-1.07,0.23
			c-0.29,0.16-0.52,0.36-0.7,0.62c-0.18,0.26-0.31,0.55-0.4,0.87c-0.09,0.32-0.16,0.66-0.2,1.02l-0.75,5.35h-3.32L507.28,338.54z"/>
		<path class="st1" d="M526.77,342.01c-0.13-0.24-0.34-0.43-0.61-0.59c-0.27-0.16-0.58-0.23-0.92-0.23c-0.84,0-1.53,0.25-2.06,0.75
			c-0.53,0.5-0.86,1.16-0.97,1.97c-0.12,0.81,0.02,1.47,0.41,1.97c0.39,0.5,1.01,0.75,1.85,0.75c0.37,0,0.7-0.08,0.99-0.24
			c0.3-0.16,0.55-0.35,0.78-0.58l1.86,2.3c-0.61,0.53-1.27,0.9-1.99,1.12c-0.72,0.21-1.4,0.32-2.03,0.32c-0.83,0-1.59-0.13-2.28-0.4
			s-1.27-0.64-1.74-1.14c-0.47-0.49-0.8-1.09-1.02-1.78c-0.21-0.69-0.26-1.47-0.14-2.32c0.12-0.86,0.38-1.63,0.78-2.32
			s0.91-1.29,1.52-1.78c0.6-0.49,1.29-0.87,2.06-1.14c0.77-0.27,1.56-0.4,2.39-0.4c0.63,0,1.29,0.11,1.96,0.32
			c0.67,0.21,1.23,0.59,1.67,1.12L526.77,342.01z"/>
		<path class="st1" d="M539.55,347.43c-0.62,0.68-1.36,1.2-2.22,1.57c-0.86,0.37-1.73,0.55-2.6,0.55c-0.83,0-1.59-0.13-2.28-0.4
			s-1.27-0.64-1.74-1.14c-0.47-0.49-0.8-1.09-1.02-1.78c-0.21-0.69-0.26-1.47-0.14-2.32c0.12-0.86,0.38-1.63,0.78-2.32
			s0.91-1.29,1.52-1.78c0.6-0.49,1.29-0.87,2.06-1.14c0.77-0.27,1.56-0.4,2.39-0.4c0.77,0,1.44,0.13,2.03,0.4
			c0.59,0.27,1.07,0.65,1.44,1.14c0.37,0.49,0.62,1.09,0.76,1.78c0.14,0.69,0.15,1.47,0.03,2.32l-0.16,1.04h-7.7
			c0.04,0.63,0.26,1.14,0.65,1.51c0.39,0.38,0.91,0.56,1.56,0.56c0.55,0,1.02-0.12,1.43-0.36c0.41-0.24,0.78-0.56,1.12-0.94
			L539.55,347.43z M537.4,342.7c0.09-0.56-0.03-1.04-0.35-1.44c-0.32-0.4-0.79-0.6-1.39-0.6c-0.37,0-0.7,0.06-1,0.18
			c-0.29,0.12-0.55,0.27-0.77,0.45c-0.22,0.19-0.41,0.4-0.55,0.64c-0.15,0.24-0.25,0.5-0.31,0.76H537.4z"/>
	</g>
	<g>
		<rect x="38.21" y="340.43" class="st1" width="222.16" height="3.72"/>
	</g>
	<g>
		<g>
			<rect x="378.49" y="240.51" class="st2" width="21.48" height="82.6"/>
		</g>
		<g>
			<path class="st2" d="M451.11,242.66c-4.15-2.58-9.37-3.88-15.66-3.88c-6.39,0-11.61,1.49-15.64,4.46
				c-4.03,2.98-6.47,6.25-7.32,9.82c-0.85,3.57-1.28,9.3-1.28,17.19v24.54c0,5.68,0.2,9.94,0.61,12.78
				c0.41,2.84,1.43,5.55,3.06,8.14c1.63,2.59,4.02,4.75,7.17,6.5c3.15,1.75,6.53,2.63,10.14,2.63c3.03,0,5.66-0.64,7.89-1.91
				c2.23-1.28,4.08-3.19,5.54-5.74l1.99,5.92h13.5v-44.33h-25.15v12.55h4.34v9.8c0,3.84-0.28,6.43-0.84,7.75
				c-0.56,1.33-1.62,1.99-3.19,1.99c-1.43,0-2.38-0.59-2.86-1.76c-0.48-1.17-0.71-3.61-0.71-7.32v-39.64c0-4.22,0.24-6.84,0.71-7.86
				c0.48-1.02,1.38-1.53,2.7-1.53c1.53,0,2.5,0.6,2.91,1.79c0.41,1.19,0.61,4.15,0.61,8.88v7.5h21.48v-3.57
				c0-6.77-0.63-11.93-1.89-15.48C457.96,248.31,455.26,245.24,451.11,242.66z"/>
		</g>
		<g>
			<rect x="472.66" y="240.51" class="st2" width="21.48" height="82.6"/>
		</g>
		<g>
			<polygon class="st2" points="527.48,306.58 527.48,240.51 506,240.51 506,323.11 540.54,323.11 540.54,306.58 			"/>
		</g>
		<g>
			<path class="st2" d="M78.74,242.45c-4.12-2.45-9.34-3.67-15.66-3.67c-4.66,0-8.78,0.79-12.37,2.37c-3.59,1.58-6.39,3.75-8.42,6.5
				c-2.02,2.75-3.24,5.62-3.65,8.6c-0.41,2.98-0.61,7.44-0.61,13.39v24.13c0,8.1,0.66,14.16,1.99,18.19
				c1.33,4.03,4.03,7.19,8.11,9.46c4.08,2.28,9.27,3.42,15.56,3.42c6.05,0,11.15-1.35,15.28-4.04c4.13-2.69,6.8-5.82,8.01-9.4
				c1.21-3.58,1.81-9.64,1.81-18.19V290H67.31v10.38c0,4.53-0.25,7.42-0.74,8.64s-1.54,1.84-3.14,1.84c-1.67,0-2.74-0.61-3.21-1.84
				c-0.48-1.22-0.71-3.84-0.71-7.86v-38.37c0-4.18,0.24-6.9,0.71-8.16c0.48-1.26,1.6-1.89,3.37-1.89c1.56,0,2.58,0.52,3.04,1.55
				c0.46,1.04,0.69,3.64,0.69,7.81v14.36h21.48v-7.85c0-7.71-0.65-13.39-1.94-17.04C85.56,247.94,82.85,244.89,78.74,242.45z"/>
		</g>
		<g>
			<polygon class="st2" points="150.93,240.51 130.78,240.51 121.21,272.6 121.21,240.51 99.73,240.51 99.73,323.11 121.21,323.11 
				121.21,287.71 129.91,323.11 152.1,323.11 138.61,277.81 			"/>
		</g>
		<g>
			<path class="st2" d="M347.48,255.87c-1.25,12.34-2.42,26.48-3.53,42.39c-1.13-15.75-3.01-35-5.64-57.75h-9.3
				c-14.75-12.36-33.21-19.11-52.73-19.11c-19.51,0-37.95,6.76-52.7,19.11h-26.22l-4.94,38.57l-3.05-21.01
				c-0.88-6.74-1.72-12.59-2.55-17.56h-27.79v82.6h18.78l0.03-54.49l7.88,54.49h13.32l7.47-55.76l0.03,55.76h18.77v-13.36
				c13.79,9.8,30.24,15.09,47.53,15.09c18.77,0,37.97-6.64,52.75-18.2l2.47,16.46h32.63l10.93-82.6h-22.65L347.48,255.87z
				 M321.02,276.22l-7.28,7.28c-4.78,4.78-10.2,8.54-15.98,11.29c3.83-4.08,6.59-9.17,7.84-14.84c0.81-0.71,1.61-1.44,2.38-2.21
				l11.54-11.54L321.02,276.22z M244.76,283.58c1.89,5.41,5.2,10.15,9.49,13.77c-6.94-2.35-13.53-6.04-19.34-11.09l5.78-5.77
				C242.01,281.59,243.37,282.62,244.76,283.58z M304.63,262.85c-1.87-5.44-5.17-10.21-9.45-13.85c6.94,2.39,13.39,6.1,19.03,11.01
				l-5.77,5.77C307.21,264.73,305.94,263.76,304.63,262.85z M225.31,249.85c13.8-13.09,31.81-20.3,50.97-20.3
				c14.18,0,27.73,3.95,39.43,11.32l1.68,11.18c-11.63-9.3-25.97-14.36-41.11-14.36c-17.64,0-34.21,6.85-46.65,19.3l-4.31,4.31
				V249.85z M225.31,272.82l10.07-10.07c4.83-4.83,10.37-8.69,16.39-11.51c-3.88,4.06-6.69,9.15-7.99,14.82
				c-0.9,0.78-1.79,1.59-2.64,2.44l-15.83,15.83V272.82z M272.85,316.7c-17.59,0-34.23-6.08-47.53-17.23v-3.61l3.83-3.83
				c12.44,11.02,28.06,16.53,43.7,16.53c16.89,0,33.79-6.43,46.66-19.3l3.03-3.03l1.5,9.96C310.19,309.42,292.1,316.7,272.85,316.7z
				"/>
		</g>
	</g>
	<g>
		<g>
			<path class="st0" d="M274.67,251.83c-11.76,0-21.3,9.54-21.3,21.3c0,11.76,9.54,21.3,21.3,21.3c11.76,0,21.3-9.54,21.3-21.3
				C295.97,261.36,286.43,251.83,274.67,251.83z M274.67,292.46c-10.68,0-19.33-8.66-19.33-19.33s8.66-19.33,19.33-19.33
				c10.68,0,19.33,8.66,19.33,19.33S285.35,292.46,274.67,292.46z"/>
		</g>
		<g>
			<g>
				<path class="st0" d="M274.67,289.7c-9.14,0-16.57-7.43-16.57-16.57c0-9.14,7.43-16.57,16.57-16.57
					c9.14,0,16.57,7.43,16.57,16.57C291.24,282.26,283.81,289.7,274.67,289.7z M274.67,258.26c-8.2,0-14.86,6.67-14.86,14.86
					c0,8.2,6.67,14.86,14.86,14.86c8.2,0,14.86-6.67,14.86-14.86C289.53,264.93,282.86,258.26,274.67,258.26z"/>
			</g>
		</g>
		<g>
			<g>
				
					<ellipse transform="matrix(0.7071 -0.7071 0.7071 0.7071 -115.5689 281.3581)" class="st0" cx="281.84" cy="280.18" rx="6.18" ry="3.06"/>
			</g>
		</g>
		<g>
			<g>
				<path class="st0" d="M263.37,269.05c-0.08,0-0.17-0.02-0.25-0.05c-0.33-0.14-0.48-0.51-0.34-0.84c1.3-3.1,3.82-5.62,6.92-6.92
					c0.33-0.14,0.7,0.02,0.84,0.34c0.14,0.33-0.02,0.7-0.34,0.84c-2.79,1.17-5.06,3.44-6.23,6.24
					C263.86,268.9,263.62,269.05,263.37,269.05z"/>
			</g>
		</g>
	</g>
</g>
</svg>
